<svg xmlns="http://www.w3.org/2000/svg" version="1.1" xmlnsXlink="http://www.w3.org/1999/xlink" xmlnsvgjs="http://svgjs.dev/svgjs" width="128" height="128" viewBox="0 0 128 128"><g transform="matrix(0.8046875,0,0,0.8046875,12.580726815545653,11.960139391447363)"><svg viewBox="0 0 93 95" data-background-color="#dedede" preserveAspectRatio="xMidYMid meet" height="130" width="128" xmlns="http://www.w3.org/2000/svg" xmlns:xlink="http://www.w3.org/1999/xlink"><g id="tight-bounds" transform="matrix(1,0,0,1,-0.07288926063830559,-0.24049999999999727)"><svg viewBox="0 0 93.1457785212766 95.481" height="95.481" width="93.1457785212766"><g><svg viewBox="0 0 93.1457785212766 95.481" height="95.481" width="93.1457785212766"><g><svg viewBox="0 0 93.1457785212766 95.481" height="95.481" width="93.1457785212766"><g id="textblocktransform"><svg viewBox="0 0 93.1457785212766 95.481" height="95.481" width="93.1457785212766" id="textblock"><g><svg viewBox="0 0 93.1457785212766 95.481" height="95.481" width="93.1457785212766"><g><svg viewBox="0 0 93.1457785212766 95.481" height="95.481" width="93.1457785212766"><g><svg xmlns="http://www.w3.org/2000/svg" xmlns:xlink="http://www.w3.org/1999/xlink" version="1.1" x="0" y="0" viewBox="0 0 91.70100000000001 94" enable-background="new 0 0 91.702 93.999" xml:space="preserve" width="93.1457785212766" height="95.481" class="icon-icon-0" data-fill-palette-color="accent" id="icon-0"><path fill-rule="evenodd" clip-rule="evenodd" d="M45.459 0c0.155 0 0.313 0 0.474 0 0.164 0.039 0.414 0.063 0.566 0 0.241 0 0.479 0 0.721 0 0.763 0.083 1.351 0.436 1.842 0.93 3.2 3.201 6.553 6.33 9.761 9.537 3.686 3.677 7.482 7.235 11.147 10.898 2.748 2.753 5.597 5.427 8.363 8.192 0.917 0.918 1.834 1.848 2.789 2.732 0.941 0.872 1.823 1.836 2.783 2.725 0.947 0.885 1.872 1.82 2.783 2.733 0.911 0.906 1.878 1.812 2.789 2.729 0.907 0.906 2.123 1.702 2.224 3.282 0 0.122 0 0.25 0 0.374-0.131 1.137-0.572 1.897-1.258 2.483-0.668 0.573-1.669 0.994-2.825 0.779-1.037-0.188-1.62-0.85-2.253-1.476-3.027-3.028-6.104-5.934-9.161-8.991-0.053-0.047-0.125-0.167-0.22-0.149-2.825 17.043-5.479 34.161-8.344 51.243-0.192 1.146-0.4 2.445-0.591 3.66-0.114 0.711-0.155 1.133-0.53 1.592-0.323 0.393-0.758 0.613-1.401 0.727-12.665 0-25.325 0-37.991 0-0.936-0.143-1.529-0.637-1.785-1.43-0.089-0.268-0.089-0.561-0.152-0.91-3.093-18.133-6.273-36.324-9.363-54.446-0.065-0.021-0.155 0.102-0.229 0.17-1.174 1.105-2.384 2.27-3.544 3.436-1.9 1.901-3.716 3.603-5.653 5.496-0.638 0.625-1.213 1.281-2.193 1.517-1.129 0.269-2.175-0.119-2.864-0.667C0.638 46.606 0.161 45.882 0 44.797c0-0.242 0-0.482 0-0.721 0.078-0.728 0.432-1.389 0.93-1.875 1.421-1.395 2.894-2.759 4.264-4.136 1.887-1.887 3.823-3.672 5.662-5.513 1.872-1.87 3.83-3.639 5.688-5.501 1.881-1.872 3.827-3.657 5.691-5.513 1.864-1.866 3.766-3.696 5.669-5.52 1.904-1.83 3.779-3.689 5.686-5.495 1.422-1.356 2.867-2.748 4.244-4.137 0.468-0.465 0.939-0.942 1.422-1.382 1.46-1.333 2.837-2.781 4.265-4.131C44.025 0.396 44.669 0.077 45.459 0zM43.337 10.504c-0.986 0.897-1.961 1.842-2.906 2.787-3.302 3.302-6.801 6.515-10.103 9.819-0.471 0.469-0.951 0.958-1.438 1.405-1.858 1.696-3.751 3.671-5.613 5.424-0.095 0.083-0.17 0.122-0.095 0.146 0.101 0.033 0.47-0.006 0.706-0.018 0.734-0.032 1.449-0.056 2.119-0.056 2.873 0 5.787-0.134 8.585-0.134 11.569 0 23.347-0.141 34.585 0.229 0.018-0.078-0.078-0.111-0.12-0.152-0.411-0.418-0.822-0.843-1.245-1.237-1.49-1.359-2.86-2.831-4.304-4.226-5.794-5.557-11.471-11.277-17.234-16.829C45.289 8.514 44.338 9.581 43.337 10.504zM38.882 39.642c-1.779 0.879-3.276 2.083-4.518 3.472-1.288 1.431-2.295 2.953-3.067 4.909-0.739 1.871-1.23 4.148-1.159 6.789 0.068 2.43 0.701 4.607 1.556 6.4 0.873 1.848 1.955 3.344 3.299 4.691 1.308 1.299 2.888 2.42 4.756 3.225 1.856 0.779 4.13 1.328 6.717 1.234 2.435-0.102 4.521-0.764 6.312-1.658 1.773-0.9 3.29-2.063 4.527-3.451 2.461-2.76 4.375-6.449 4.226-11.693-0.065-2.445-0.691-4.627-1.532-6.429-0.853-1.83-1.931-3.32-3.295-4.685-1.294-1.293-2.895-2.422-4.766-3.225-1.852-0.792-4.175-1.353-6.745-1.23C42.682 38.11 40.673 38.76 38.882 39.642z" fill="#ffffff" data-fill-palette-color="accent"></path></svg></g></svg></g></svg></g></svg></g></svg></g></svg></g><defs></defs></svg><rect width="93.1457785212766" height="95.481" fill="none" stroke="none" visibility="hidden"></rect></g></svg></g></svg>